<svg width="24" height="24" viewBox="0 0 24 24" fill="none" xmlns="http://www.w3.org/2000/svg">
  <path d="M1 18C1.15 16.2167 1.696 14.575 2.638 13.075C3.58 11.575 4.834 10.3833 6.4 9.50001L4.55 6.30001C4.45 6.15001 4.425 5.99168 4.475 5.82501C4.525 5.65835 4.63333 5.53335 4.8 5.45001C4.93333 5.36668 5.08333 5.35001 5.25 5.40001C5.41667 5.45001 5.55 5.55001 5.65 5.70001L7.5 8.90001C8.93333 8.30001 10.4333 8.00001 12 8.00001C13.5667 8.00001 15.0667 8.30001 16.5 8.90001L18.35 5.70001C18.45 5.55001 18.5833 5.45001 18.75 5.40001C18.9167 5.35001 19.0667 5.36668 19.2 5.45001C19.3667 5.53335 19.475 5.65835 19.525 5.82501C19.575 5.99168 19.55 6.15001 19.45 6.30001L17.6 9.50001C19.1667 10.3833 20.4207 11.575 21.362 13.075C22.3033 14.575 22.8493 16.2167 23 18H1ZM7 15.25C7.35 15.25 7.646 15.129 7.888 14.887C8.13 14.645 8.25067 14.3493 8.25 14C8.24933 13.6507 8.12833 13.3547 7.887 13.112C7.64567 12.8693 7.35 12.7487 7 12.75C6.65 12.7513 6.354 12.8723 6.112 13.113C5.87 13.3537 5.74933 13.6493 5.75 14C5.75067 14.3507 5.87167 14.6467 6.113 14.888C6.35433 15.1293 6.65 15.25 7 15.25ZM17 15.25C17.35 15.25 17.646 15.129 17.888 14.887C18.13 14.645 18.2507 14.3493 18.25 14C18.2493 13.6507 18.1283 13.3547 17.887 13.112C17.6457 12.8693 17.35 12.7487 17 12.75C16.65 12.7513 16.354 12.8723 16.112 13.113C15.87 13.3537 15.7493 13.6493 15.75 14C15.7507 14.3507 15.8717 14.6467 16.113 14.888C16.3543 15.1293 16.65 15.25 17 15.25Z" fill="#FDFDFD" />
</svg>