<svg width="16" height="11" viewBox="0 0 16 11" fill="none" xmlns="http://www.w3.org/2000/svg">
  <mask id="path-1-inside-1_3018_7446" fill="white">
    <path d="M0 10.54V9.54H16V10.54H0ZM0 5.77V4.77H16V5.77H0ZM0 1V0H16V1H0Z" />
  </mask>
  <path d="M0 10.54V9.54H16V10.54H0ZM0 5.77V4.77H16V5.77H0ZM0 1V0H16V1H0Z" fill="#FDFDFD" />
  <path d="M0 10.54H-1V11.54H0V10.54ZM0 9.54V8.54H-1V9.54H0ZM16 9.54H17V8.54H16V9.54ZM16 10.54V11.54H17V10.54H16ZM0 5.77H-1V6.77H0V5.77ZM0 4.77V3.77H-1V4.77H0ZM16 4.77H17V3.77H16V4.77ZM16 5.77V6.77H17V5.77H16ZM0 1H-1V2H0V1ZM0 0V-1H-1V0H0ZM16 0H17V-1H16V0ZM16 1V2H17V1H16ZM0 10.54H1V9.54H0H-1V10.54H0ZM0 9.54V10.54H16V9.54V8.54H0V9.54ZM16 9.54H15V10.54H16H17V9.54H16ZM16 10.54V9.54H0V10.54V11.54H16V10.54ZM0 5.77H1V4.77H0H-1V5.77H0ZM0 4.77V5.77H16V4.77V3.77H0V4.77ZM16 4.77H15V5.77H16H17V4.77H16ZM16 5.77V4.77H0V5.77V6.77H16V5.77ZM0 1H1V0H0H-1V1H0ZM0 0V1H16V0V-1H0V0ZM16 0H15V1H16H17V0H16ZM16 1V0H0V1V2H16V1Z" fill="#FDFDFD" mask="url(#path-1-inside-1_3018_7446)" />
</svg>