<svg width="24" height="24" viewBox="0 0 24 24" fill="none" xmlns="http://www.w3.org/2000/svg">
  <g clip-path="url(#clip0_3018_16495)">
    <path d="M2.00024 5.22382L4.90664 10.4188V13.5876L2.00364 18.7724L2.00024 5.22382Z" fill="#FDFDFD" />
    <path d="M13.1597 8.52871L15.8831 6.85951L21.4567 6.85431L13.1597 11.9371V8.52871Z" fill="#FDFDFD" />
    <path d="M13.1441 5.1934L13.1595 12.0714L10.2463 10.2814V0L13.1441 5.1934Z" fill="#FDFDFD" />
    <path d="M21.4565 6.8542L15.8827 6.8594L13.1441 5.1934L10.2463 0L21.4565 6.8542Z" fill="#FDFDFD" />
    <path d="M13.1595 18.8016V15.4646L10.2463 13.7086L10.2479 24.0002L13.1595 18.8016Z" fill="#FDFDFD" />
    <path d="M15.8762 17.1472L4.90644 10.4188L2.00024 5.22382L21.4448 17.1404L15.8762 17.1472Z" fill="#FDFDFD" />
    <path d="M10.2483 24L13.1595 18.8014L15.8761 17.1474L21.4447 17.1406L10.2483 24Z" fill="#FDFDFD" />
    <path d="M2.00366 18.7727L10.2703 13.7087L7.49106 12.0035L4.90666 13.5879L2.00366 18.7727Z" fill="#FDFDFD" />
  </g>
  <defs>
    <clipPath id="clip0_3018_16495">
      <rect width="24" height="24" fill="white" />
    </clipPath>
  </defs>
</svg>